<svg width="361" height="286" viewBox="0 0 361 286" fill="none" xmlns="http://www.w3.org/2000/svg">
<path d="M85.7813 116.502C87.1491 116.298 88.5525 116.192 89.9843 116.192H283.016C284.448 116.192 285.851 116.298 287.219 116.502M85.7813 116.502C71.1801 118.68 60.6301 132.027 62.7916 146.796L73.2559 218.296C75.1891 231.506 86.7788 241.317 100.449 241.317H272.552C286.221 241.317 297.811 231.506 299.744 218.297L310.208 146.796C312.37 132.027 301.82 118.68 287.219 116.502M85.7813 116.502V71.5046C85.7813 56.6965 98.0795 44.6921 113.25 44.6921H160.602C165.459 44.6921 170.117 46.5754 173.551 49.9276L199.449 75.2067C202.883 78.5589 207.541 80.4421 212.398 80.4421H259.75C274.921 80.4421 287.219 92.4465 287.219 107.255V116.502" stroke="#FE7C6E" stroke-width="1.5" stroke-linecap="round" stroke-linejoin="round"/>
</svg>
