<svg width="25" height="25" viewBox="0 0 25 25" fill="none" xmlns="http://www.w3.org/2000/svg">
<path d="M9.75359 13.5027C8.7952 12.7357 7.57494 12.293 6.20849 12.293C2.66096 12.293 0.125 14.7744 0.125 18.2611C0.125 21.7599 2.66096 24.2713 6.20849 24.2713C7.55469 24.2713 8.75673 23.8419 9.70635 23.0966V23.8905H13.1409V12.6325H9.76534L9.75359 13.5027ZM6.74343 20.8378C5.24659 20.8378 4.14633 19.7403 4.14633 18.2705C4.14633 16.8093 5.23755 15.7118 6.74343 15.7118C8.24028 15.7118 9.34054 16.8093 9.34054 18.2705C9.34 19.7403 8.2396 20.8378 6.74289 20.8378H6.74343Z" fill="#97A1A8"/>
<path d="M24.8128 13.2766V12.644H14.7744V16.0674H19.2847L14.8403 23.3267V23.9021H24.8583V20.4546H20.4307L24.8128 13.2766Z" fill="#97A1A8"/>
<path d="M17.9026 0H16.8797L17.9326 1.08297C12.9311 5.33441 5.75207 5.91624 0.125488 2.82203C0.817586 3.98402 1.66619 5.05132 2.6489 5.99574C8.46109 11.5879 17.6761 11.8198 23.7241 6.70069L24.8024 7.6887V6.63952L24.8054 6.64241V0H17.9026Z" fill="#97A1A8"/>
</svg>
