<svg width="48" height="48" viewBox="0 0 48 48" fill="none" xmlns="http://www.w3.org/2000/svg">
<circle cx="24" cy="24" r="24" fill="#F4C8E1"/>
<path d="M30.75 28.5V18C30.7512 17.7042 30.6939 17.411 30.5813 17.1375C30.4686 16.8639 30.3029 16.6154 30.0938 16.4062C29.8846 16.1971 29.636 16.0314 29.3625 15.9187C29.089 15.8061 28.7958 15.7487 28.5 15.75H15.75" stroke="#E54594" strokeLinecap="round" strokeLinejoin="round"/>
<path d="M21.75 21.75H27.75" stroke="#E54594" strokeLinecap="round" strokeLinejoin="round"/>
<path d="M21.75 24.75H27.75" stroke="#E54594" strokeLinecap="round" strokeLinejoin="round"/>
<path d="M14.0719 19.5C13.829 19.2281 13.6559 18.9012 13.5673 18.5475C13.4788 18.1938 13.4776 17.8239 13.5637 17.4696C13.6498 17.1154 13.8208 16.7873 14.0618 16.5138C14.3028 16.2402 14.6067 16.0293 14.9473 15.8992C15.288 15.7692 15.6551 15.7238 16.0171 15.7671C16.3791 15.8104 16.7252 15.941 17.0255 16.1477C17.3259 16.3544 17.5715 16.631 17.7413 16.9536C17.911 17.2763 17.9998 17.6354 18 18V30C18.0002 30.3646 18.089 30.7237 18.2587 31.0464C18.4285 31.369 18.6741 31.6456 18.9745 31.8523C19.2748 32.059 19.6209 32.1896 19.9829 32.2329C20.3449 32.2762 20.712 32.2308 21.0527 32.1008C21.3933 31.9707 21.6972 31.7598 21.9382 31.4862C22.1792 31.2127 22.3502 30.8846 22.4363 30.5304C22.5224 30.1761 22.5212 29.8062 22.4327 29.4525C22.3441 29.0988 22.171 28.7719 21.9281 28.5H32.4281C32.7177 28.8238 32.9074 29.2245 32.9743 29.6538C33.0411 30.0831 32.9823 30.5225 32.8048 30.9191C32.6274 31.3156 32.3389 31.6523 31.9743 31.8885C31.6096 32.1246 31.1844 32.2502 30.75 32.25H20.25" stroke="#E54594" strokeLinecap="round" strokeLinejoin="round"/>
</svg>
