<svg width="49" height="48" viewBox="0 0 49 48" fill="none" xmlns="http://www.w3.org/2000/svg">
<circle cx="24.3" cy="24" r="24" fill="#B6EEDD"/>
<path d="M24.3 18.75V20.25" stroke="#07C693" strokeLinecap="round" strokeLinejoin="round"/>
<path d="M24.3 27.75V29.25" stroke="#07C693" strokeLinecap="round" strokeLinejoin="round"/>
<path d="M24.3 33C29.2706 33 33.3 28.9706 33.3 24C33.3 19.0294 29.2706 15 24.3 15C19.3295 15 15.3 19.0294 15.3 24C15.3 28.9706 19.3295 33 24.3 33Z" stroke="#07C693" strokeLinecap="round" strokeLinejoin="round"/>
<path d="M22.05 27.75H25.425C25.9223 27.75 26.3992 27.5525 26.7509 27.2008C27.1025 26.8492 27.3 26.3723 27.3 25.875C27.3 25.3777 27.1025 24.9008 26.7509 24.5492C26.3992 24.1975 25.9223 24 25.425 24H23.175C22.6778 24 22.2009 23.8025 21.8492 23.4508C21.4976 23.0992 21.3 22.6223 21.3 22.125C21.3 21.6277 21.4976 21.1508 21.8492 20.7992C22.2009 20.4475 22.6778 20.25 23.175 20.25H26.55" stroke="#07C693" strokeLinecap="round" strokeLinejoin="round"/>
</svg>
